HIERARCHY
ROOT hip
{
	OFFSET 0.000000 0.000000 0.000000 
	CHANNELS 6 Xposition Yposition Zposition Xrotation Zrotation Yrotation
	JOINT abdomen
	{
		OFFSET 0.000000 3.402643 0.000000 
		CHANNELS 3 Xrotation Zrotation Yrotation
		JOINT chest
		{
			OFFSET 0.000000 8.438565 -0.680529 
			CHANNELS 3 Xrotation Zrotation Yrotation
			JOINT neck
			{
				OFFSET 0.000000 10.207942 -0.272212 
				CHANNELS 3 Xrotation Zrotation Yrotation
				JOINT head
				{
					OFFSET 0.000000 3.130431 0.000000 
					CHANNELS 3 Xrotation Zrotation Yrotation
					End Site
					{
						OFFSET 0.000000 3.130435 0.000000 
					}
				}
			}
			JOINT lCollar
			{
				OFFSET 3.470700 6.669187 -0.816635 
				CHANNELS 3 Yrotation Zrotation Xrotation
				JOINT lShldr
				{
					OFFSET 3.198488 0.000000 0.000000 
					CHANNELS 3 Zrotation Yrotation Xrotation
					JOINT lForeArm
					{
						OFFSET 10.139888 0.000000 0.000000 
						CHANNELS 3 Yrotation Zrotation Xrotation
						JOINT lHand
						{
							OFFSET 8.370511 0.000000 0.000000 
							CHANNELS 3 Zrotation Yrotation Xrotation
							End Site
							{
								OFFSET 4.083176 0.000000 0.000000 
							}
						}
					}
				}
			}
			JOINT rCollar
			{
				OFFSET -3.470700 6.669187 -0.816635 
				CHANNELS 3 Yrotation Zrotation Xrotation
				JOINT rShldr
				{
					OFFSET -3.198488 0.000000 0.000000 
					CHANNELS 3 Zrotation Yrotation Xrotation
					JOINT rForeArm
					{
						OFFSET -10.139888 0.000000 0.000000 
						CHANNELS 3 Yrotation Zrotation Xrotation
						JOINT rHand
						{
							OFFSET -8.370511 0.000000 0.000000 
							CHANNELS 3 Zrotation Yrotation Xrotation
							End Site
							{
								OFFSET -4.083176 0.000000 0.000000 
							}
						}
					}
				}
			}
		}
	}
	JOINT lThigh
	{
		OFFSET 5.308129 -1.633274 1.361059 
		CHANNELS 3 Xrotation Zrotation Yrotation
		JOINT lShin
		{
			OFFSET -2.041588 -20.007561 0.000000 
			CHANNELS 3 Xrotation Zrotation Yrotation
			JOINT lFoot
			{
				OFFSET 0.000000 -19.190928 -1.224953 
				CHANNELS 3 Xrotation Yrotation Zrotation
				End Site
				{
					OFFSET 0.000000 -2.449906 4.627600 
				}
			}
		}
	}
	JOINT rThigh
	{
		OFFSET -5.308129 -1.633274 1.361059 
		CHANNELS 3 Xrotation Zrotation Yrotation
		JOINT rShin
		{
			OFFSET 2.041588 -20.007561 0.000000 
			CHANNELS 3 Xrotation Zrotation Yrotation
			JOINT rFoot
			{
				OFFSET 0.000000 -19.190928 -1.224953 
				CHANNELS 3 Xrotation Yrotation Zrotation
				End Site
				{
					OFFSET 0.000000 -2.449906 4.627600 
				}
			}
		}
	}
}
MOTION
Frames: 19
Frame Time: 0.016667
3.098927 49.440971 -0.600371 -8.241349 -2.657853 -9.996456 34.343887 -1.776267 -1.866766 -6.178756 -2.416998 -1.000348 13.376089 10.581036 -4.921131 13.376089 10.581036 -4.921131 -3.016329 -7.003239 -14.506140 -56.257435 -5.166984 -12.631712 -53.688526 6.120450 -42.688309 -0.798799 -125.365189 -116.524719 7.094460 3.629055 -5.156251 63.607544 19.065985 -3.046604 59.641613 37.485649 3.114982 85.636200 -27.649401 -3.413315 -11.017313 5.610291 4.269321 39.258064 6.226102 -3.445630 -21.708445 4.860815 -7.948431 -4.853684 -23.344254 -10.539218 35.482174 3.343937 -15.988061 -16.626556 6.254185 23.752184 
2.761091 49.183918 -0.704191 -8.444637 -2.347348 -9.310102 34.419266 -2.039194 -1.614778 -6.118362 -2.577469 -0.662095 13.421325 10.702817 -5.254285 13.421325 10.702817 -5.254285 -2.931290 -7.156407 -14.416465 -55.932877 -5.387739 -12.873881 -53.814629 5.562087 -42.320580 -0.122406 -124.869766 -116.699516 7.251093 3.743716 -5.081869 63.861954 19.407148 -3.126389 58.180008 36.249454 3.657422 86.268036 -26.052322 -3.089661 -11.692607 5.689397 4.456357 40.470985 6.655946 -4.176822 -22.291872 4.810191 -8.172365 -4.833748 -23.050362 -9.824783 36.388985 3.213568 -15.784640 -18.613802 5.528934 23.584021 
2.430039 48.974766 -0.812398 -8.609208 -2.075973 -8.553164 34.453842 -2.240515 -1.422084 -6.107282 -2.691062 -0.417444 13.573293 10.762747 -5.465233 13.573293 10.762747 -5.465233 -2.768117 -7.089390 -14.207063 -55.938999 -5.486803 -13.129614 -53.965019 5.068824 -41.927353 0.454535 -124.266945 -116.879097 7.417633 3.868902 -5.000244 63.991272 19.584324 -3.275295 57.316360 35.388439 3.810251 87.428795 -24.398388 -3.009610 -12.278520 5.806746 4.550911 41.368279 7.094913 -4.824478 -22.679474 4.669327 -8.468826 -4.912493 -22.585072 -9.530724 37.200024 2.851779 -16.045538 -20.059958 5.182655 23.150255 
2.103098 48.816853 -0.926432 -8.705619 -1.824453 -7.679812 34.437363 -2.359190 -1.318772 -6.126048 -2.757622 -0.276789 13.761524 10.744848 -5.567776 13.761524 10.744848 -5.567776 -2.565888 -6.923777 -13.979403 -56.136951 -5.464201 -13.161852 -54.034149 4.877056 -41.686142 0.894208 -123.711327 -117.045670 7.641863 3.895417 -4.890336 64.084549 19.584120 -3.480010 57.249153 34.852055 3.251562 89.076134 -23.275478 -3.113219 -12.881052 5.732678 4.047752 42.440937 7.513773 -4.874484 -23.251549 4.532232 -8.944133 -5.526884 -22.182693 -9.680194 38.560013 2.306617 -16.442999 -21.307428 4.763363 23.011045 
1.777438 48.705956 -1.046834 -8.802296 -1.602011 -6.705186 34.429363 -2.424575 -1.305641 -6.135135 -2.814597 -0.231869 13.957436 10.679012 -5.584335 13.957436 10.679012 -5.584335 -2.343748 -6.654745 -13.727203 -56.389072 -5.384212 -13.032085 -54.003567 5.076537 -41.517067 1.517613 -123.226479 -117.438133 7.837703 4.013649 -4.781398 64.157219 19.439930 -3.401061 57.918877 34.359440 2.482954 90.517876 -22.639132 -3.222398 -13.450671 5.836553 3.877934 43.370731 7.953862 -5.424527 -23.799593 4.341393 -9.241052 -5.712316 -22.061657 -10.681735 39.916500 1.814436 -15.860913 -22.358944 3.927784 22.762283 
1.442323 48.640488 -1.162698 -8.909040 -1.427883 -5.635638 34.459454 -2.449255 -1.347250 -6.115113 -2.852259 -0.261800 14.174030 10.631179 -5.485588 14.174030 10.631179 -5.485588 -2.073143 -6.358636 -13.403912 -56.649372 -5.724556 -12.506326 -53.589619 5.920593 -41.347752 2.752812 -122.718460 -118.417175 7.994997 4.160740 -4.704119 64.175552 19.229300 -3.191709 59.034931 33.959957 2.024158 91.589539 -22.201559 -3.269364 -13.744982 6.032742 3.579733 43.269291 8.182897 -6.003624 -23.542116 4.068563 -9.576077 -5.634771 -21.879272 -11.475698 40.759018 1.597182 -15.730250 -22.754629 3.348533 22.634773 
1.083889 48.625202 -1.255655 -8.967111 -1.282959 -4.514420 34.507206 -2.406948 -1.378517 -6.056687 -2.832585 -0.308804 14.348612 10.537799 -5.328107 14.348612 10.537799 -5.328107 -1.841351 -6.086447 -13.194797 -57.020824 -5.643619 -12.613672 -53.863365 5.563868 -40.817303 5.852543 -122.143997 -120.285698 8.053533 4.172487 -4.660578 64.252808 18.950758 -3.079883 60.482590 33.766041 1.628948 92.508942 -22.206924 -3.362288 -13.445351 6.356619 3.235255 42.409389 8.182837 -6.834085 -23.161020 3.908074 -9.769585 -5.283367 -21.510109 -12.708457 41.091770 1.099429 -15.509449 -22.668732 2.880815 22.662643 
0.684868 48.667843 -1.314284 -8.995752 -1.080300 -3.364177 34.551582 -2.239812 -1.668217 -6.008271 -2.794096 -0.633735 14.555176 10.281934 -4.913949 14.555176 10.281934 -4.913949 -1.208828 -5.901664 -13.079784 -57.580368 -5.451773 -13.004121 -53.831192 5.868585 -39.880512 8.848346 -121.352890 -122.708542 8.559417 3.988218 -4.658953 64.293510 18.621433 -3.203762 62.126308 33.886562 1.376859 93.618065 -22.193893 -3.735815 -13.356086 6.550944 2.852199 41.614925 8.374120 -7.388607 -22.662422 3.554389 -10.217281 -5.439502 -21.279091 -13.641491 41.991795 0.676692 -15.419142 -22.681618 2.523402 22.936865 
0.243154 48.773632 -1.335836 -9.014624 -0.829472 -2.153583 34.541225 -2.221264 -1.746718 -6.017931 -2.803686 -0.713761 14.787722 10.157692 -4.725808 14.787722 10.157692 -4.725808 -1.109836 -5.577446 -12.790953 -58.315876 -5.258059 -13.584949 -53.894852 6.114605 -38.783997 12.996840 -120.636055 -126.272491 8.459924 3.833647 -4.550397 64.335602 18.232248 -3.494251 64.015488 34.318417 1.184862 94.932922 -21.803585 -4.397333 -13.159828 6.726222 2.400630 40.531387 8.513983 -7.841271 -22.026117 3.118407 -10.766195 -5.654323 -20.987705 -14.239602 42.901962 0.452710 -15.670937 -22.952765 2.100994 23.064184 
-0.231813 48.941769 -1.323981 -9.023870 -0.559396 -0.877964 34.520744 -2.191585 -1.828089 -6.037601 -2.794454 -0.798323 15.080494 10.049642 -4.523422 15.080494 10.049642 -4.523422 -1.067297 -5.221744 -12.419578 -59.150040 -5.112247 -14.056724 -53.988972 6.476030 -37.578476 18.254282 -120.068481 -131.048218 8.301068 3.600442 -4.397753 64.257446 17.806627 -3.863864 66.267487 34.882957 0.872374 96.383850 -21.182222 -5.204656 -12.728496 6.959488 1.836484 39.036530 8.500974 -8.239523 -21.164854 2.592651 -11.402320 -5.566806 -20.562311 -14.813487 43.360302 0.341924 -16.119162 -22.929741 1.870445 23.468246 
-0.726846 49.163834 -1.285642 -9.013787 -0.289351 0.426759 34.490147 -2.149434 -1.889226 -6.067045 -2.785339 -0.882417 15.401928 9.921367 -4.312351 15.401928 9.921367 -4.312351 -1.072791 -4.894254 -12.061815 -59.918797 -4.995188 -14.246426 -54.091965 6.986024 -36.292889 -160.224472 -60.366859 46.948654 8.161385 3.307003 -4.238403 64.028137 17.341452 -4.243042 68.908737 35.420303 0.270825 97.978561 -20.597437 -5.978265 -12.117476 7.293935 1.209781 37.146648 8.272008 -8.547719 -20.145313 1.945670 -11.981835 -5.136866 -20.089079 -15.355319 43.302025 0.383991 -16.593409 -22.796780 1.728727 23.780706 
-1.226275 49.424633 -1.229670 -8.945317 -0.057881 1.727861 34.420792 -2.118396 -1.921332 -6.135710 -2.767215 -0.923208 15.594222 9.997173 -4.462203 15.594222 9.997173 -4.462203 -1.097175 -4.553716 -11.676637 -60.540447 -4.848361 -14.194468 -54.249569 7.521508 -35.283928 -155.699448 -60.736557 42.935871 8.002147 2.963122 -4.092866 63.748123 16.733227 -4.397824 70.727943 35.207314 -0.679722 99.908333 -20.615614 -5.549450 -11.402472 7.712356 0.640270 34.947235 7.968894 -8.956606 -18.901962 1.254382 -12.573175 -4.580376 -19.534012 -15.698186 42.892094 0.608718 -17.074678 -22.640871 1.671985 23.875444 
-1.724324 49.704575 -1.165714 -8.828171 0.183349 2.989102 34.293800 -2.121814 -1.916330 -6.253252 -2.749655 -0.912873 15.985674 9.884157 -4.225633 15.985674 9.884157 -4.225633 -1.208906 -4.380688 -11.358092 -60.832310 -4.571025 -14.177583 -54.532066 7.726929 -34.846344 -152.971695 -60.952267 40.262295 7.249208 2.904821 -3.852989 63.233871 16.495014 -3.920731 73.666183 35.345161 -1.707689 101.467705 -19.315966 -5.544392 -10.611341 8.170824 0.240873 32.491032 7.654822 -9.305220 -17.538956 0.403576 -13.205160 -3.955753 -18.879419 -15.811975 42.209347 0.891985 -17.618933 -22.480391 1.732148 23.929232 
-2.217513 49.982658 -1.103559 -8.672094 0.405467 4.215503 34.167156 -2.133925 -1.859992 -6.390341 -2.732293 -0.852854 16.364183 9.715313 -3.940034 16.364183 9.715313 -3.940034 -1.351506 -4.414464 -11.202646 -60.787769 -4.190645 -14.297172 -54.839970 7.628463 -34.606491 -153.128098 -61.563030 39.541412 7.002268 2.495487 -3.703119 62.782177 16.017975 -3.733714 76.538063 35.159405 -2.858688 103.272591 -17.492697 -5.282948 -9.802761 8.670217 -0.143500 29.887186 7.242259 -9.375597 -16.068123 -0.645583 -13.921753 -3.379225 -18.083805 -15.591818 41.375015 1.177491 -18.341358 -22.385653 1.968654 23.884336 
-2.714824 50.238876 -1.050340 -8.457624 0.676160 5.397515 33.992790 -2.189755 -1.796079 -6.566201 -2.743821 -0.778399 16.730680 9.509703 -3.571604 16.730680 9.509703 -3.571604 -1.514471 -4.491552 -11.147596 -60.547161 -3.802225 -14.391229 -55.101772 7.528666 -34.346565 -153.294464 -62.067310 39.124561 6.755607 2.140299 -3.503991 62.346943 15.645974 -3.501148 79.111359 34.763844 -4.401873 105.506783 -15.554630 -4.973697 -9.032756 9.110939 -0.628726 27.263847 6.755745 -9.120974 -14.512568 -1.896347 -14.636665 -2.969549 -17.211952 -15.068350 40.569893 1.377453 -19.056433 -22.345682 2.234985 23.751242 
-3.223535 50.454136 -1.014287 -8.253160 0.976115 6.557662 33.818512 -2.250420 -1.746986 -6.741845 -2.774338 -0.718158 17.044729 9.250819 -3.114958 17.044729 9.250819 -3.114958 -1.658123 -4.524195 -11.079852 -60.428577 -3.557401 -14.408728 -55.260384 7.726552 -33.885941 -151.164764 -62.135025 37.013607 6.558218 1.848597 -3.317029 61.999382 15.282580 -3.323187 81.195328 34.375881 -5.949686 108.160622 -13.304285 -4.581538 -8.372825 9.515179 -1.169571 24.778004 6.279533 -8.913578 -12.911125 -2.965754 -15.298736 -2.607980 -16.362700 -14.476548 39.831249 1.421501 -19.445820 -22.386276 2.383211 23.577772 
-3.749573 50.613319 -1.001252 -8.068391 1.266638 7.730659 33.682259 -2.272319 -1.719351 -6.878716 -2.775903 -0.672477 17.296217 8.930062 -2.573122 17.296217 8.930062 -2.573122 -2.329806 -4.471076 -10.891450 -60.525967 -3.198189 -15.022847 -55.463043 8.006708 -33.178528 -148.865128 -62.149269 34.946075 6.390635 1.609036 -3.168125 61.899723 14.856171 -3.773606 82.766312 34.651291 -7.225820 110.962730 -10.958349 -4.669539 -7.903994 10.012556 -1.856469 22.625185 5.652502 -8.668470 -11.375914 -3.928547 -15.810237 -2.198178 -15.586965 -14.143398 39.118393 1.284884 -19.417435 -22.504942 2.536593 23.304892 
-4.298569 50.703976 -1.012969 -7.922867 1.557265 8.914245 33.603985 -2.269660 -1.701599 -6.957143 -2.757772 -0.664250 17.494947 8.537777 -1.958702 17.494947 8.537777 -1.958702 -2.425521 -4.486111 -10.801373 -60.676682 -3.015957 -15.229346 -55.790737 8.003910 -32.639259 -147.048141 -62.226070 33.592880 6.311135 1.411539 -3.036599 61.658337 14.637273 -3.756096 83.915115 34.364506 -8.755707 113.489655 -8.903297 -5.208753 -7.630342 10.490301 -2.524032 20.834820 5.153236 -8.422410 -10.029424 -4.847544 -16.331516 -1.767993 -14.928763 -14.039714 38.536957 0.989820 -18.954136 -22.784681 2.625688 22.988426 
-4.871169 50.719788 -1.046735 -7.806949 1.876984 10.074871 33.564281 -2.247723 -1.707175 -6.996460 -2.739190 -0.687237 17.670603 8.063381 -1.288308 17.670603 8.063381 -1.288308 -2.502313 -4.533061 -10.740658 -60.707111 -2.833987 -15.550712 -56.091270 7.712331 -32.305859 -145.964371 -62.459396 33.076801 6.299952 1.270671 -2.893148 61.358315 14.572388 -3.903829 84.442223 34.281590 -9.890095 114.017654 -8.096336 -5.720906 -7.605260 10.905814 -2.879485 19.505104 4.833951 -8.394355 -8.881348 -5.678820 -16.805607 -1.651185 -14.317941 -13.766066 38.462883 0.630273 -18.503944 -23.331388 2.687270 22.661119 
